solid OpenSCAD_Model
  facet normal -1 0 0
    outer loop
      vertex 0 0 0
      vertex 0 75 28
      vertex 0 75 0
    endloop
  endfacet
  facet normal -1 -0 0
    outer loop
      vertex 0 75 28
      vertex 0 0 0
      vertex 0 0 28
    endloop
  endfacet
  facet normal 0 0 1
    outer loop
      vertex 76.5 75 28
      vertex 65.75 59.5 28
      vertex 76.5 0 28
    endloop
  endfacet
  facet normal 0 0 1
    outer loop
      vertex 76.5 75 28
      vertex 10.75 59.5 28
      vertex 65.75 59.5 28
    endloop
  endfacet
  facet normal 0 0 1
    outer loop
      vertex 0 0 28
      vertex 10.75 59.5 28
      vertex 0 75 28
    endloop
  endfacet
  facet normal -0 0 1
    outer loop
      vertex 0 75 28
      vertex 10.75 59.5 28
      vertex 76.5 75 28
    endloop
  endfacet
  facet normal -0 0 1
    outer loop
      vertex 65.75 9.5 28
      vertex 76.5 0 28
      vertex 65.75 59.5 28
    endloop
  endfacet
  facet normal -0 0 1
    outer loop
      vertex 10.75 9.5 28
      vertex 76.5 0 28
      vertex 65.75 9.5 28
    endloop
  endfacet
  facet normal 0 0 1
    outer loop
      vertex 10.75 9.5 28
      vertex 0 0 28
      vertex 76.5 0 28
    endloop
  endfacet
  facet normal 0 0 1
    outer loop
      vertex 10.75 59.5 28
      vertex 0 0 28
      vertex 10.75 9.5 28
    endloop
  endfacet
  facet normal 1 -0 0
    outer loop
      vertex 76.5 0 28
      vertex 76.5 75 0
      vertex 76.5 75 28
    endloop
  endfacet
  facet normal 1 0 0
    outer loop
      vertex 76.5 75 0
      vertex 76.5 0 28
      vertex 76.5 0 0
    endloop
  endfacet
  facet normal 0 1 0
    outer loop
      vertex 76.5 75 28
      vertex 75.5 75 14.9
      vertex 0 75 28
    endloop
  endfacet
  facet normal 0 1 -0
    outer loop
      vertex 76.5 75 0
      vertex 75.5 75 14.9
      vertex 76.5 75 28
    endloop
  endfacet
  facet normal 0 1 0
    outer loop
      vertex 75.5 75 14.9
      vertex 76.5 75 0
      vertex 75.5 75 0
    endloop
  endfacet
  facet normal 0 1 -0
    outer loop
      vertex 1 75 14.9
      vertex 0 75 28
      vertex 75.5 75 14.9
    endloop
  endfacet
  facet normal 0 1 0
    outer loop
      vertex 0 75 0
      vertex 1 75 14.9
      vertex 1 75 0
    endloop
  endfacet
  facet normal 0 1 0
    outer loop
      vertex 1 75 14.9
      vertex 0 75 0
      vertex 0 75 28
    endloop
  endfacet
  facet normal 0 0 -1
    outer loop
      vertex 75.7 73.2 0
      vertex 76.5 0 0
      vertex 75.7 1 0
    endloop
  endfacet
  facet normal 0 0 -1
    outer loop
      vertex 76.5 0 0
      vertex 1 1 0
      vertex 75.7 1 0
    endloop
  endfacet
  facet normal 0 0 -1
    outer loop
      vertex 0 0 0
      vertex 1 1 0
      vertex 76.5 0 0
    endloop
  endfacet
  facet normal 0 0 -1
    outer loop
      vertex 0 75 0
      vertex 1 1 0
      vertex 0 0 0
    endloop
  endfacet
  facet normal 0 0 -1
    outer loop
      vertex 1 1 0
      vertex 0 75 0
      vertex 1 75 0
    endloop
  endfacet
  facet normal 0 0 -1
    outer loop
      vertex 76.5 0 0
      vertex 75.7 73.2 0
      vertex 76.5 75 0
    endloop
  endfacet
  facet normal 0 0 -1
    outer loop
      vertex 75.5 75 0
      vertex 75.7 73.2 0
      vertex 75.5 73.2 0
    endloop
  endfacet
  facet normal 0 0 -1
    outer loop
      vertex 75.7 73.2 0
      vertex 75.5 75 0
      vertex 76.5 75 0
    endloop
  endfacet
  facet normal 0 -1 0
    outer loop
      vertex 0 0 0
      vertex 76.5 0 28
      vertex 0 0 28
    endloop
  endfacet
  facet normal 0 -1 -0
    outer loop
      vertex 76.5 0 28
      vertex 0 0 0
      vertex 76.5 0 0
    endloop
  endfacet
  facet normal 1 0 0
    outer loop
      vertex 1 73.2 26.9
      vertex 1 1 26.9
      vertex 1 73.2 14.9
    endloop
  endfacet
  facet normal 1 -0 0
    outer loop
      vertex 1 73.2 14.9
      vertex 1 75 0
      vertex 1 75 14.9
    endloop
  endfacet
  facet normal 1 0 0
    outer loop
      vertex 1 1 0
      vertex 1 73.2 14.9
      vertex 1 1 26.9
    endloop
  endfacet
  facet normal 1 0 0
    outer loop
      vertex 1 73.2 14.9
      vertex 1 1 0
      vertex 1 75 0
    endloop
  endfacet
  facet normal 0 0 -1
    outer loop
      vertex 65.75 59.5 26.9
      vertex 75.7 1 26.9
      vertex 65.75 9.5 26.9
    endloop
  endfacet
  facet normal 0 0 -1
    outer loop
      vertex 1 1 26.9
      vertex 65.75 9.5 26.9
      vertex 75.7 1 26.9
    endloop
  endfacet
  facet normal -0 0 -1
    outer loop
      vertex 10.75 9.5 26.9
      vertex 1 1 26.9
      vertex 10.75 59.5 26.9
    endloop
  endfacet
  facet normal -0 0 -1
    outer loop
      vertex 65.75 9.5 26.9
      vertex 1 1 26.9
      vertex 10.75 9.5 26.9
    endloop
  endfacet
  facet normal 0 0 -1
    outer loop
      vertex 75.7 1 26.9
      vertex 65.75 59.5 26.9
      vertex 75.7 73.2 26.9
    endloop
  endfacet
  facet normal 0 0 -1
    outer loop
      vertex 10.75 59.5 26.9
      vertex 75.7 73.2 26.9
      vertex 65.75 59.5 26.9
    endloop
  endfacet
  facet normal 0 0 -1
    outer loop
      vertex 10.75 59.5 26.9
      vertex 1 73.2 26.9
      vertex 75.7 73.2 26.9
    endloop
  endfacet
  facet normal 0 0 -1
    outer loop
      vertex 1 73.2 26.9
      vertex 10.75 59.5 26.9
      vertex 1 1 26.9
    endloop
  endfacet
  facet normal -1 0 0
    outer loop
      vertex 75.7 1 0
      vertex 75.7 73.2 26.9
      vertex 75.7 73.2 0
    endloop
  endfacet
  facet normal -1 -0 0
    outer loop
      vertex 75.7 73.2 26.9
      vertex 75.7 1 0
      vertex 75.7 1 26.9
    endloop
  endfacet
  facet normal 0 -1 0
    outer loop
      vertex 75.5 73.2 14.9
      vertex 1 73.2 26.9
      vertex 1 73.2 14.9
    endloop
  endfacet
  facet normal 0 -1 0
    outer loop
      vertex 1 73.2 26.9
      vertex 75.5 73.2 14.9
      vertex 75.7 73.2 26.9
    endloop
  endfacet
  facet normal 0 -1 0
    outer loop
      vertex 75.7 73.2 0
      vertex 75.5 73.2 14.9
      vertex 75.5 73.2 0
    endloop
  endfacet
  facet normal 0 -1 0
    outer loop
      vertex 75.5 73.2 14.9
      vertex 75.7 73.2 0
      vertex 75.7 73.2 26.9
    endloop
  endfacet
  facet normal 0 1 -0
    outer loop
      vertex 75.7 1 0
      vertex 1 1 26.9
      vertex 75.7 1 26.9
    endloop
  endfacet
  facet normal 0 1 0
    outer loop
      vertex 1 1 26.9
      vertex 75.7 1 0
      vertex 1 1 0
    endloop
  endfacet
  facet normal 0 0 -1
    outer loop
      vertex 1 73.2 14.9
      vertex 75.5 75 14.9
      vertex 75.5 73.2 14.9
    endloop
  endfacet
  facet normal -0 0 -1
    outer loop
      vertex 75.5 75 14.9
      vertex 1 73.2 14.9
      vertex 1 75 14.9
    endloop
  endfacet
  facet normal -1 0 0
    outer loop
      vertex 75.5 73.2 0
      vertex 75.5 75 14.9
      vertex 75.5 75 0
    endloop
  endfacet
  facet normal -1 -0 0
    outer loop
      vertex 75.5 75 14.9
      vertex 75.5 73.2 0
      vertex 75.5 73.2 14.9
    endloop
  endfacet
  facet normal 1 -0 0
    outer loop
      vertex 10.75 9.5 28
      vertex 10.75 59.5 26.9
      vertex 10.75 59.5 28
    endloop
  endfacet
  facet normal 1 0 0
    outer loop
      vertex 10.75 59.5 26.9
      vertex 10.75 9.5 28
      vertex 10.75 9.5 26.9
    endloop
  endfacet
  facet normal -1 0 0
    outer loop
      vertex 65.75 9.5 26.9
      vertex 65.75 59.5 28
      vertex 65.75 59.5 26.9
    endloop
  endfacet
  facet normal -1 -0 0
    outer loop
      vertex 65.75 59.5 28
      vertex 65.75 9.5 26.9
      vertex 65.75 9.5 28
    endloop
  endfacet
  facet normal 0 -1 0
    outer loop
      vertex 10.75 59.5 26.9
      vertex 65.75 59.5 28
      vertex 10.75 59.5 28
    endloop
  endfacet
  facet normal 0 -1 -0
    outer loop
      vertex 65.75 59.5 28
      vertex 10.75 59.5 26.9
      vertex 65.75 59.5 26.9
    endloop
  endfacet
  facet normal 0 1 -0
    outer loop
      vertex 65.75 9.5 26.9
      vertex 10.75 9.5 28
      vertex 65.75 9.5 28
    endloop
  endfacet
  facet normal 0 1 0
    outer loop
      vertex 10.75 9.5 28
      vertex 65.75 9.5 26.9
      vertex 10.75 9.5 26.9
    endloop
  endfacet
endsolid OpenSCAD_Model
